<?xml version="1.0" encoding="UTF-8"?>
<svg id="Layer_1" data-name="Layer 1" xmlns="http://www.w3.org/2000/svg" version="1.1" viewBox="0 0 494.12 155.14">
  <defs>
    <style>
      .cls-1 {
        fill: #FFFFF9;
      }

      .cls-1, .cls-2 {
        stroke-width: 0px;
      }

      .cls-2 {
        fill: #FFFFF9;
      }
    </style>
  </defs>
  <path class="cls-1" d="M82.51,144.52c-34.05,0-61.75-27.7-61.75-61.75,0-4.77-.93-11.48-1.91-18.59-2.66-19.21-5.67-40.99,5.24-50.15,8.25-6.93,23.73-2.21,38.7,2.35,7.49,2.28,15.23,4.64,19.72,4.64s12.39-2.33,20.05-4.58c15.53-4.57,31.59-9.3,39.86-2.33,10.74,9.06,7.28,30.32,4.22,49.07-1.22,7.52-2.38,14.62-2.38,19.58,0,34.05-27.7,61.75-61.75,61.75ZM35.43,20.83c-2.07,0-3.71.34-4.67,1.15-6.52,5.48-3.7,25.89-1.64,40.79,1.03,7.47,2.01,14.53,2.01,20.01,0,28.33,23.05,51.37,51.37,51.37s51.37-23.05,51.37-51.37c0-5.8,1.22-13.3,2.51-21.25,2.35-14.44,5.57-34.22-.67-39.48-4-3.38-19.79,1.27-30.24,4.35-8.74,2.57-17,5.01-22.98,5.01s-14.15-2.47-22.74-5.09c-7.53-2.3-17.97-5.48-24.33-5.48Z"/>
  <g>
    <g>
      <path class="cls-1" d="M200.46,34.84c2.76,0,5.07.67,6.94,2.02,1.87,1.35,3.2,3.2,3.99,5.56h14.86c-1.51-6.1-4.48-10.84-8.91-14.22-4.43-3.38-10.03-5.07-16.78-5.07-5.25,0-9.91,1.16-13.98,3.49-4.07,2.33-7.25,5.61-9.55,9.84-2.3,4.23-3.45,9.17-3.45,14.81s1.15,10.58,3.45,14.81c2.3,4.23,5.48,7.51,9.55,9.84,4.07,2.33,8.73,3.49,13.98,3.49,6.69,0,12.27-1.74,16.73-5.22,4.46-3.48,7.45-8.17,8.96-14.08h-14.86c-1.71,4.99-5.35,7.48-10.93,7.48-3.94,0-7.05-1.43-9.35-4.28s-3.44-6.87-3.44-12.06,1.15-9.3,3.44-12.15c2.3-2.86,5.41-4.28,9.35-4.28Z"/>
      <path class="cls-1" d="M307.41,65.7c-.89-.82-1.33-2.15-1.33-3.99v-26.38h7.44l4.76-11.32h-12.21v-13.48h-13.88v51.09c0,11.29,5.81,16.93,17.42,16.93h3.9l4.76-11.62h-6.4c-2.1,0-3.59-.41-4.48-1.23Z"/>
      <path class="cls-1" d="M285.31,24.02h-13.48v7.78c-1.84-2.49-4.28-4.56-7.33-6.2-3.05-1.64-6.61-2.46-10.68-2.46-4.66,0-8.88,1.15-12.65,3.45s-6.76,5.58-8.96,9.84c-2.2,4.27-3.3,9.16-3.3,14.67s1.1,10.52,3.3,14.81c2.2,4.3,5.18,7.63,8.96,9.99s7.96,3.54,12.55,3.54c4.07,0,7.66-.84,10.78-2.51,3.12-1.67,5.56-3.79,7.33-6.35v7.97h13.88v-43.21h-5.16l4.76-11.32ZM269.86,59.89c-1.31,2.4-3.09,4.23-5.32,5.51-2.23,1.28-4.62,1.92-7.18,1.92s-4.84-.65-7.04-1.97c-2.2-1.31-3.97-3.2-5.32-5.66-1.34-2.46-2.02-5.33-2.02-8.61s.67-6.12,2.02-8.51c1.35-2.39,3.1-4.22,5.27-5.46,2.17-1.25,4.53-1.87,7.09-1.87s4.95.64,7.18,1.92c2.23,1.28,4,3.12,5.32,5.51,1.31,2.4,1.97,5.27,1.97,8.61s-.66,6.22-1.97,8.61Z"/>
    </g>
    <g>
      <path class="cls-2" d="M210.28,114.27c1.76-.96,3.26-2.23,4.49-3.78,1.92-2.42,2.89-5.45,2.89-9,0-3.02-.79-5.77-2.34-8.17-1.55-2.4-3.85-4.29-6.83-5.62-2.92-1.3-6.42-1.96-10.4-1.96h-24.5v58.88h25.55c3.99,0,7.5-.69,10.46-2.05,3-1.39,5.33-3.34,6.94-5.82,1.6-2.48,2.42-5.38,2.42-8.62,0-3.61-1.12-6.85-3.33-9.64-1.49-1.88-3.28-3.29-5.34-4.21ZM187.3,97.26h9.17c2.39,0,4.23.53,5.46,1.58,1.19,1.01,1.77,2.44,1.77,4.35s-.57,3.32-1.76,4.31c-1.23,1.03-3.07,1.55-5.47,1.55h-9.17v-11.79ZM203.2,131.34c-1.31,1.1-3.22,1.66-5.67,1.66h-10.22v-12.84h9.98c2.45,0,4.4.6,5.79,1.78,1.35,1.15,2.01,2.72,2.01,4.8s-.62,3.53-1.88,4.59Z"/>
      <path class="cls-2" d="M298.38,91.35c-4.1-2.23-8.75-3.35-13.93-3.35s-10.14,1.15-14.27,3.45c-4.13,2.3-7.35,5.58-9.65,9.84-2.3,4.27-3.45,9.22-3.45,14.86s1.16,10.5,3.49,14.76c2.33,4.27,5.58,7.57,9.75,9.89,4.17,2.33,8.87,3.49,14.13,3.49,6.5,0,11.97-1.69,16.44-5.07,4.46-3.38,7.48-7.69,9.06-12.95h-14.86c-2.17,4.4-5.81,6.6-10.93,6.6-3.54,0-6.53-1.12-8.96-3.35-2.43-2.23-3.81-5.32-4.13-9.25h39.87c.26-1.58.39-3.35.39-5.31,0-5.32-1.13-10.03-3.4-14.13-2.26-4.1-5.45-7.27-9.55-9.5ZM271.16,111.03c.52-3.67,1.95-6.54,4.28-8.61,2.33-2.07,5.2-3.1,8.61-3.1,3.61,0,6.66,1.07,9.15,3.2,2.49,2.13,3.77,4.97,3.84,8.51h-25.89Z"/>
      <path class="cls-2" d="M355.17,91.35c-4.1-2.23-8.75-3.35-13.93-3.35s-10.14,1.15-14.27,3.45c-4.13,2.3-7.35,5.58-9.65,9.84-2.3,4.27-3.45,9.22-3.45,14.86s1.16,10.5,3.49,14.76c2.33,4.27,5.58,7.57,9.75,9.89,4.17,2.33,8.87,3.49,14.13,3.49,6.5,0,11.97-1.69,16.44-5.07,4.46-3.38,7.48-7.69,9.06-12.95h-14.86c-2.17,4.4-5.81,6.6-10.93,6.6-3.54,0-6.53-1.12-8.96-3.35-2.43-2.23-3.81-5.32-4.13-9.25h39.87c.26-1.58.39-3.35.39-5.31,0-5.32-1.13-10.03-3.4-14.13-2.26-4.1-5.45-7.27-9.55-9.5ZM327.96,111.03c.52-3.67,1.95-6.54,4.28-8.61,2.33-2.07,5.2-3.1,8.61-3.1,3.61,0,6.66,1.07,9.15,3.2,2.49,2.13,3.77,4.97,3.84,8.51h-25.89Z"/>
      <path class="cls-2" d="M413.49,96.47c-1.9-2.56-4.46-4.61-7.68-6.15-3.22-1.54-6.6-2.31-10.14-2.31-4.66,0-8.89,1.15-12.7,3.45-3.81,2.3-6.81,5.58-9.01,9.84-2.2,4.27-3.3,9.15-3.3,14.67s1.1,10.52,3.3,14.81c2.2,4.3,5.2,7.63,9.01,9.99,3.8,2.36,8,3.54,12.6,3.54,4.07,0,7.64-.82,10.73-2.46,3.08-1.64,5.48-3.81,7.19-6.5v8.07h13.98v-72.84h-13.98v25.89ZM411.62,124.77c-1.31,2.4-3.09,4.23-5.31,5.51-2.23,1.28-4.63,1.92-7.19,1.92s-4.84-.66-7.04-1.97c-2.2-1.31-3.97-3.2-5.31-5.66-1.35-2.46-2.02-5.33-2.02-8.61s.67-6.12,2.02-8.51c1.34-2.39,3.1-4.22,5.27-5.46,2.17-1.25,4.53-1.87,7.09-1.87s4.95.64,7.19,1.92c2.23,1.28,4,3.12,5.31,5.51,1.31,2.4,1.97,5.27,1.97,8.61s-.66,6.22-1.97,8.61Z"/>
      <path class="cls-2" d="M476.44,119.16c-1.87-2.2-4.08-3.82-6.64-4.87-2.56-1.05-5.81-2.07-9.75-3.05-3.87-.99-6.73-1.95-8.56-2.9-1.84-.95-2.76-2.35-2.76-4.18,0-1.64.67-2.92,2.02-3.84,1.34-.92,3.26-1.38,5.76-1.38,2.69,0,4.84.64,6.45,1.92,1.61,1.28,2.51,3,2.71,5.17h13.19c-.39-5.51-2.53-9.89-6.4-13.14-3.87-3.25-9.06-4.87-15.55-4.87-4.4,0-8.22.72-11.47,2.16-3.25,1.45-5.74,3.41-7.48,5.91-1.74,2.49-2.61,5.25-2.61,8.27,0,3.68.94,6.6,2.81,8.76,1.87,2.17,4.1,3.78,6.69,4.82,2.59,1.05,5.92,2.07,9.99,3.05,3.94,1.05,6.81,2.02,8.61,2.9,1.8.89,2.71,2.22,2.71,3.99,0,1.64-.74,2.99-2.22,4.04-1.48,1.05-3.53,1.57-6.15,1.57s-4.94-.69-6.74-2.07c-1.81-1.38-2.84-3.12-3.1-5.22h-13.88c.2,3.35,1.33,6.4,3.4,9.16,2.07,2.76,4.87,4.94,8.42,6.54,3.54,1.61,7.55,2.41,12.01,2.41s8.12-.7,11.37-2.12,5.74-3.36,7.48-5.86c1.74-2.49,2.61-5.31,2.61-8.47-.07-3.61-1.03-6.51-2.9-8.71Z"/>
      <path class="cls-2" d="M238.57,96.76v-8.47h-13.78v54.53h13.78v-27.17c0-5.05,1.1-8.6,3.3-10.63,2.2-2.03,5.46-3.05,9.79-3.05h3.64v-14.47c-3.68,0-6.94.82-9.79,2.46-2.86,1.64-5.17,3.9-6.94,6.79Z"/>
    </g>
  </g>
</svg>